<svg xmlns="http://www.w3.org/2000/svg" viewBox="0 0 64 64" width="64" height="64"><rect width="64" height="64" rx="16" fill="#c9a27e" fill-opacity="0.16"/><rect x="0.5" y="0.5" width="63" height="63" rx="15.5" fill="none" stroke="#c9a27e" stroke-opacity="0.45"/><g transform="translate(16 16) scale(1.3333)" fill="none" stroke="#c9a27e" stroke-width="1.75" stroke-linecap="round" stroke-linejoin="round"><path d="M20 9V6a2 2 0 0 0-2-2H6a2 2 0 0 0-2 2v3" /><path d="M2 16a2 2 0 0 0 2 2h16a2 2 0 0 0 2-2v-5a2 2 0 0 0-4 0v1.5a.5.5 0 0 1-.5.5h-11a.5.5 0 0 1-.5-.5V11a2 2 0 0 0-4 0z" /><path d="M4 18v2" /><path d="M20 18v2" /><path d="M12 4v9" /></g></svg>
